<?xml version="1.0" standalone="no"?>
<svg xmlns:xlink="http://www.w3.org/1999/xlink" id="wave" style="transform:rotate(0deg); transition: 0.3s" viewBox="0 0 1440 100" version="1.1" xmlns="http://www.w3.org/2000/svg"><defs><linearGradient id="sw-gradient-0" x1="0" x2="0" y1="1" y2="0"><stop stop-color="rgba(31, 38, 103, 1)" offset="0%"/><stop stop-color="rgba(31, 38, 103, 1)" offset="100%"/></linearGradient></defs><path style="transform:translate(0, 0px); opacity:1" fill="url(#sw-gradient-0)" d="M0,30L24,30C48,30,96,30,144,31.7C192,33,240,37,288,43.3C336,50,384,60,432,53.3C480,47,528,23,576,25C624,27,672,53,720,63.3C768,73,816,67,864,60C912,53,960,47,1008,40C1056,33,1104,27,1152,35C1200,43,1248,67,1296,75C1344,83,1392,77,1440,76.7C1488,77,1536,83,1584,86.7C1632,90,1680,90,1728,75C1776,60,1824,30,1872,16.7C1920,3,1968,7,2016,20C2064,33,2112,57,2160,58.3C2208,60,2256,40,2304,41.7C2352,43,2400,67,2448,63.3C2496,60,2544,30,2592,20C2640,10,2688,20,2736,26.7C2784,33,2832,37,2880,33.3C2928,30,2976,20,3024,13.3C3072,7,3120,3,3168,15C3216,27,3264,53,3312,56.7C3360,60,3408,40,3432,30L3456,20L3456,100L3432,100C3408,100,3360,100,3312,100C3264,100,3216,100,3168,100C3120,100,3072,100,3024,100C2976,100,2928,100,2880,100C2832,100,2784,100,2736,100C2688,100,2640,100,2592,100C2544,100,2496,100,2448,100C2400,100,2352,100,2304,100C2256,100,2208,100,2160,100C2112,100,2064,100,2016,100C1968,100,1920,100,1872,100C1824,100,1776,100,1728,100C1680,100,1632,100,1584,100C1536,100,1488,100,1440,100C1392,100,1344,100,1296,100C1248,100,1200,100,1152,100C1104,100,1056,100,1008,100C960,100,912,100,864,100C816,100,768,100,720,100C672,100,624,100,576,100C528,100,480,100,432,100C384,100,336,100,288,100C240,100,192,100,144,100C96,100,48,100,24,100L0,100Z"/></svg>